<mxfile host="app.diagrams.net" agent="Mozilla/5.0 (Windows NT 10.0; Win64; x64; rv:141.0) Gecko/20100101 Firefox/141.0" version="28.0.7">
  <diagram name="Page-1" id="HJvJs6pYMaRayR3DsgE3">
    <mxGraphModel dx="1426" dy="725" grid="1" gridSize="10" guides="1" tooltips="1" connect="1" arrows="1" fold="1" page="1" pageScale="1" pageWidth="1100" pageHeight="850" background="#ffffff" math="0" shadow="0">
      <root>
        <mxCell id="0" />
        <mxCell id="1" parent="0" />
        <mxCell id="IfX35u8cwS3Jkw4mED-J-1" value="Azure Hosted Service A" style="shape=umlLifeline;whiteSpace=wrap;html=1;container=1;dropTarget=0;collapsible=0;recursiveResize=0;outlineConnect=0;portConstraint=eastwest;newEdgeStyle={&quot;curved&quot;:0,&quot;rounded&quot;:0};points=[[0,0,0,0,5],[0,1,0,0,-5],[1,0,0,0,5],[1,1,0,0,-5]];perimeter=rectanglePerimeter;targetShapes=umlLifeline;participant=label;" parent="1" vertex="1">
          <mxGeometry x="40" y="160" width="145" height="360" as="geometry" />
        </mxCell>
        <mxCell id="IfX35u8cwS3Jkw4mED-J-7" value="" style="html=1;points=[[0,0,0,0,5],[0,1,0,0,-5],[1,0,0,0,5],[1,1,0,0,-5]];perimeter=orthogonalPerimeter;outlineConnect=0;targetShapes=umlLifeline;portConstraint=eastwest;newEdgeStyle={&quot;curved&quot;:0,&quot;rounded&quot;:0};" parent="IfX35u8cwS3Jkw4mED-J-1" vertex="1">
          <mxGeometry x="67.5" y="70" width="10" height="40" as="geometry" />
        </mxCell>
        <mxCell id="IfX35u8cwS3Jkw4mED-J-24" value="" style="html=1;points=[[0,0,0,0,5],[0,1,0,0,-5],[1,0,0,0,5],[1,1,0,0,-5]];perimeter=orthogonalPerimeter;outlineConnect=0;targetShapes=umlLifeline;portConstraint=eastwest;newEdgeStyle={&quot;curved&quot;:0,&quot;rounded&quot;:0};" parent="IfX35u8cwS3Jkw4mED-J-1" vertex="1">
          <mxGeometry x="67.5" y="130" width="10" height="50" as="geometry" />
        </mxCell>
        <mxCell id="IfX35u8cwS3Jkw4mED-J-35" value="" style="html=1;points=[[0,0,0,0,5],[0,1,0,0,-5],[1,0,0,0,5],[1,1,0,0,-5]];perimeter=orthogonalPerimeter;outlineConnect=0;targetShapes=umlLifeline;portConstraint=eastwest;newEdgeStyle={&quot;curved&quot;:0,&quot;rounded&quot;:0};" parent="IfX35u8cwS3Jkw4mED-J-1" vertex="1">
          <mxGeometry x="67.5" y="205" width="10" height="135" as="geometry" />
        </mxCell>
        <mxCell id="IfX35u8cwS3Jkw4mED-J-2" value="&lt;div&gt;Azure AD&lt;/div&gt;&lt;div&gt;(OIDC Provider)&lt;/div&gt;" style="shape=umlLifeline;perimeter=lifelinePerimeter;whiteSpace=wrap;html=1;container=1;dropTarget=0;collapsible=0;recursiveResize=0;outlineConnect=0;portConstraint=eastwest;newEdgeStyle={&quot;curved&quot;:0,&quot;rounded&quot;:0};" parent="1" vertex="1">
          <mxGeometry x="280" y="160" width="100" height="360" as="geometry" />
        </mxCell>
        <mxCell id="IfX35u8cwS3Jkw4mED-J-13" value="" style="html=1;points=[[0,0,0,0,5],[0,1,0,0,-5],[1,0,0,0,5],[1,1,0,0,-5]];perimeter=orthogonalPerimeter;outlineConnect=0;targetShapes=umlLifeline;portConstraint=eastwest;newEdgeStyle={&quot;curved&quot;:0,&quot;rounded&quot;:0};" parent="IfX35u8cwS3Jkw4mED-J-2" vertex="1">
          <mxGeometry x="45" y="70" width="10" height="40" as="geometry" />
        </mxCell>
        <mxCell id="IfX35u8cwS3Jkw4mED-J-4" value="GCP STS&lt;div&gt;(Security Token Service)&lt;/div&gt;" style="shape=umlLifeline;perimeter=lifelinePerimeter;whiteSpace=wrap;html=1;container=1;dropTarget=0;collapsible=0;recursiveResize=0;outlineConnect=0;portConstraint=eastwest;newEdgeStyle={&quot;curved&quot;:0,&quot;rounded&quot;:0};" parent="1" vertex="1">
          <mxGeometry x="440" y="160" width="140" height="360" as="geometry" />
        </mxCell>
        <mxCell id="IfX35u8cwS3Jkw4mED-J-19" value="" style="html=1;points=[[0,0,0,0,5],[0,1,0,0,-5],[1,0,0,0,5],[1,1,0,0,-5]];perimeter=orthogonalPerimeter;outlineConnect=0;targetShapes=umlLifeline;portConstraint=eastwest;newEdgeStyle={&quot;curved&quot;:0,&quot;rounded&quot;:0};" parent="IfX35u8cwS3Jkw4mED-J-4" vertex="1">
          <mxGeometry x="65" y="130" width="10" height="50" as="geometry" />
        </mxCell>
        <mxCell id="IfX35u8cwS3Jkw4mED-J-5" value="GCP IAM" style="shape=umlLifeline;perimeter=lifelinePerimeter;whiteSpace=wrap;html=1;container=1;dropTarget=0;collapsible=0;recursiveResize=0;outlineConnect=0;portConstraint=eastwest;newEdgeStyle={&quot;curved&quot;:0,&quot;rounded&quot;:0};" parent="1" vertex="1">
          <mxGeometry x="680" y="160" width="100" height="360" as="geometry" />
        </mxCell>
        <mxCell id="IfX35u8cwS3Jkw4mED-J-28" value="" style="html=1;points=[[0,0,0,0,5],[0,1,0,0,-5],[1,0,0,0,5],[1,1,0,0,-5]];perimeter=orthogonalPerimeter;outlineConnect=0;targetShapes=umlLifeline;portConstraint=eastwest;newEdgeStyle={&quot;curved&quot;:0,&quot;rounded&quot;:0};" parent="IfX35u8cwS3Jkw4mED-J-5" vertex="1">
          <mxGeometry x="45" y="130" width="10" height="50" as="geometry" />
        </mxCell>
        <mxCell id="IfX35u8cwS3Jkw4mED-J-38" value="" style="html=1;points=[[0,0,0,0,5],[0,1,0,0,-5],[1,0,0,0,5],[1,1,0,0,-5]];perimeter=orthogonalPerimeter;outlineConnect=0;targetShapes=umlLifeline;portConstraint=eastwest;newEdgeStyle={&quot;curved&quot;:0,&quot;rounded&quot;:0};" parent="IfX35u8cwS3Jkw4mED-J-5" vertex="1">
          <mxGeometry x="45" y="260" width="10" height="50" as="geometry" />
        </mxCell>
        <mxCell id="IfX35u8cwS3Jkw4mED-J-6" value="GCP Hosted Service B" style="shape=umlLifeline;perimeter=lifelinePerimeter;whiteSpace=wrap;html=1;container=1;dropTarget=0;collapsible=0;recursiveResize=0;outlineConnect=0;portConstraint=eastwest;newEdgeStyle={&quot;curved&quot;:0,&quot;rounded&quot;:0};" parent="1" vertex="1">
          <mxGeometry x="870" y="160" width="140" height="360" as="geometry" />
        </mxCell>
        <mxCell id="IfX35u8cwS3Jkw4mED-J-37" value="" style="html=1;points=[[0,0,0,0,5],[0,1,0,0,-5],[1,0,0,0,5],[1,1,0,0,-5]];perimeter=orthogonalPerimeter;outlineConnect=0;targetShapes=umlLifeline;portConstraint=eastwest;newEdgeStyle={&quot;curved&quot;:0,&quot;rounded&quot;:0};" parent="IfX35u8cwS3Jkw4mED-J-6" vertex="1">
          <mxGeometry x="65" y="205" width="10" height="135" as="geometry" />
        </mxCell>
        <mxCell id="IARDQXrho0BfnOGG31uQ-1" value="" style="html=1;points=[[0,0,0,0,5],[0,1,0,0,-5],[1,0,0,0,5],[1,1,0,0,-5]];perimeter=orthogonalPerimeter;outlineConnect=0;targetShapes=umlLifeline;portConstraint=eastwest;newEdgeStyle={&quot;curved&quot;:0,&quot;rounded&quot;:0};" parent="IfX35u8cwS3Jkw4mED-J-6" vertex="1">
          <mxGeometry x="60" y="260" width="10" height="50" as="geometry" />
        </mxCell>
        <mxCell id="IfX35u8cwS3Jkw4mED-J-17" value="&lt;div&gt;Request OIDC Token&lt;/div&gt;&lt;div&gt;(Client Credentials / Managed ID)&lt;/div&gt;" style="html=1;verticalAlign=bottom;endArrow=block;curved=0;rounded=0;entryX=0;entryY=0;entryDx=0;entryDy=5;entryPerimeter=0;exitX=1;exitY=0;exitDx=0;exitDy=5;exitPerimeter=0;" parent="1" source="IfX35u8cwS3Jkw4mED-J-7" target="IfX35u8cwS3Jkw4mED-J-13" edge="1">
          <mxGeometry width="80" relative="1" as="geometry">
            <mxPoint x="100" y="215" as="sourcePoint" />
            <mxPoint x="315" y="240" as="targetPoint" />
          </mxGeometry>
        </mxCell>
        <mxCell id="IfX35u8cwS3Jkw4mED-J-18" value="OIDC Token (Signed JWT)" style="html=1;verticalAlign=bottom;endArrow=open;dashed=1;curved=0;rounded=0;exitX=0;exitY=1;exitDx=0;exitDy=-5;exitPerimeter=0;entryX=1;entryY=1;entryDx=0;entryDy=-5;entryPerimeter=0;" parent="1" source="IfX35u8cwS3Jkw4mED-J-13" target="IfX35u8cwS3Jkw4mED-J-7" edge="1">
          <mxGeometry x="0.0027" relative="1" as="geometry">
            <mxPoint x="319.5" y="270" as="sourcePoint" />
            <mxPoint x="100" y="285" as="targetPoint" />
            <mxPoint as="offset" />
          </mxGeometry>
        </mxCell>
        <mxCell id="IfX35u8cwS3Jkw4mED-J-26" value="Azure JWT Token Using Workload ID Federation" style="html=1;verticalAlign=bottom;endArrow=block;curved=0;rounded=0;exitX=1;exitY=0;exitDx=0;exitDy=5;exitPerimeter=0;entryX=0;entryY=0;entryDx=0;entryDy=5;entryPerimeter=0;" parent="1" source="IfX35u8cwS3Jkw4mED-J-24" target="IfX35u8cwS3Jkw4mED-J-19" edge="1">
          <mxGeometry width="80" relative="1" as="geometry">
            <mxPoint x="330" y="320" as="sourcePoint" />
            <mxPoint x="410" y="320" as="targetPoint" />
          </mxGeometry>
        </mxCell>
        <mxCell id="IfX35u8cwS3Jkw4mED-J-27" value="&lt;div&gt;Verify Azure Token / Map Federated ID&lt;/div&gt;&lt;div&gt;to GCP Service Account&lt;/div&gt;&lt;div&gt;(Validate Trusted OIDC Meta:&amp;nbsp;&lt;/div&gt;&lt;div&gt;Signature, Audience, Issuer etc.)&lt;/div&gt;" style="html=1;verticalAlign=bottom;endArrow=block;curved=0;rounded=0;exitX=1;exitY=0;exitDx=0;exitDy=5;exitPerimeter=0;entryX=0;entryY=0;entryDx=0;entryDy=5;entryPerimeter=0;" parent="1" source="IfX35u8cwS3Jkw4mED-J-19" target="IfX35u8cwS3Jkw4mED-J-28" edge="1">
          <mxGeometry width="80" relative="1" as="geometry">
            <mxPoint x="526.25" y="309.5" as="sourcePoint" />
            <mxPoint x="620" y="300" as="targetPoint" />
          </mxGeometry>
        </mxCell>
        <mxCell id="IfX35u8cwS3Jkw4mED-J-29" value="Federation Approved&lt;div&gt;(Issue GCP Access Token - OAuth 2.0)&lt;/div&gt;" style="html=1;verticalAlign=bottom;endArrow=open;dashed=1;curved=0;rounded=0;entryX=1;entryY=1;entryDx=0;entryDy=-5;entryPerimeter=0;exitX=0;exitY=1;exitDx=0;exitDy=-5;exitPerimeter=0;" parent="1" source="IfX35u8cwS3Jkw4mED-J-28" target="IfX35u8cwS3Jkw4mED-J-19" edge="1">
          <mxGeometry x="0.0027" relative="1" as="geometry">
            <mxPoint x="717" y="400" as="sourcePoint" />
            <mxPoint x="530" y="400" as="targetPoint" />
            <mxPoint as="offset" />
          </mxGeometry>
        </mxCell>
        <mxCell id="IfX35u8cwS3Jkw4mED-J-32" value="GCP Access Token (Short-Lived JWT)" style="html=1;verticalAlign=bottom;endArrow=open;dashed=1;curved=0;rounded=0;exitX=0;exitY=1;exitDx=0;exitDy=-5;exitPerimeter=0;entryX=1;entryY=1;entryDx=0;entryDy=-5;entryPerimeter=0;" parent="1" source="IfX35u8cwS3Jkw4mED-J-19" target="IfX35u8cwS3Jkw4mED-J-24" edge="1">
          <mxGeometry x="0.0027" relative="1" as="geometry">
            <mxPoint x="450" y="340" as="sourcePoint" />
            <mxPoint x="200" y="340" as="targetPoint" />
            <mxPoint as="offset" />
          </mxGeometry>
        </mxCell>
        <mxCell id="IfX35u8cwS3Jkw4mED-J-36" value="API Call Using GCP Access Token (as Bearer)" style="html=1;verticalAlign=bottom;endArrow=block;curved=0;rounded=0;exitX=1;exitY=0;exitDx=0;exitDy=5;exitPerimeter=0;" parent="1" source="IfX35u8cwS3Jkw4mED-J-35" target="IfX35u8cwS3Jkw4mED-J-37" edge="1">
          <mxGeometry x="0.0007" width="80" relative="1" as="geometry">
            <mxPoint x="170" y="320" as="sourcePoint" />
            <mxPoint x="750" y="380" as="targetPoint" />
            <mxPoint as="offset" />
          </mxGeometry>
        </mxCell>
        <mxCell id="IfX35u8cwS3Jkw4mED-J-40" value="&lt;div&gt;Validate&amp;nbsp; GCP Access Token&lt;/div&gt;&lt;div&gt;(Verify JWT: Permissions,&lt;/div&gt;&lt;div&gt;Signature, Audience, Scopes etc.)&lt;/div&gt;" style="html=1;verticalAlign=bottom;endArrow=block;curved=0;rounded=0;entryX=1;entryY=0;entryDx=0;entryDy=5;entryPerimeter=0;exitX=0;exitY=0;exitDx=0;exitDy=5;exitPerimeter=0;" parent="1" source="IARDQXrho0BfnOGG31uQ-1" target="IfX35u8cwS3Jkw4mED-J-38" edge="1">
          <mxGeometry x="-0.0018" width="80" relative="1" as="geometry">
            <mxPoint x="920" y="425" as="sourcePoint" />
            <mxPoint x="970" y="420" as="targetPoint" />
            <mxPoint as="offset" />
          </mxGeometry>
        </mxCell>
        <mxCell id="IfX35u8cwS3Jkw4mED-J-41" value="Authorization Success" style="html=1;verticalAlign=bottom;endArrow=open;dashed=1;curved=0;rounded=0;exitX=1;exitY=1;exitDx=0;exitDy=-5;exitPerimeter=0;entryX=0;entryY=1;entryDx=0;entryDy=-5;entryPerimeter=0;" parent="1" source="IfX35u8cwS3Jkw4mED-J-38" target="IARDQXrho0BfnOGG31uQ-1" edge="1">
          <mxGeometry x="0.0027" relative="1" as="geometry">
            <mxPoint x="900" y="520" as="sourcePoint" />
            <mxPoint x="920" y="460" as="targetPoint" />
            <mxPoint as="offset" />
          </mxGeometry>
        </mxCell>
        <mxCell id="IfX35u8cwS3Jkw4mED-J-42" value="Return Response" style="html=1;verticalAlign=bottom;endArrow=open;dashed=1;curved=0;rounded=0;exitX=0;exitY=1;exitDx=0;exitDy=-5;exitPerimeter=0;entryX=1;entryY=1;entryDx=0;entryDy=-5;entryPerimeter=0;" parent="1" source="IfX35u8cwS3Jkw4mED-J-37" target="IfX35u8cwS3Jkw4mED-J-35" edge="1">
          <mxGeometry x="0.0027" relative="1" as="geometry">
            <mxPoint x="827" y="490" as="sourcePoint" />
            <mxPoint x="500" y="490" as="targetPoint" />
            <mxPoint as="offset" />
          </mxGeometry>
        </mxCell>
        <mxCell id="VE8aZIl63zwmvPPROk4E-25" value="&lt;h1 style=&quot;margin-top: 0px;&quot;&gt;&lt;font style=&quot;font-size: 18px;&quot;&gt;Service-to-Service (S2S) Workload Identity Federation&lt;/font&gt;&lt;/h1&gt;&lt;p&gt;An Azure Hosted Service calling a GCP Hosted Service. A service-to-service (S2S) request from a service hosted in Azure to a service hosted in GCP using Workload Identity.Federation&lt;/p&gt;" style="text;html=1;whiteSpace=wrap;overflow=hidden;rounded=0;" parent="1" vertex="1">
          <mxGeometry x="40" y="30" width="490" height="90" as="geometry" />
        </mxCell>
      </root>
    </mxGraphModel>
  </diagram>
</mxfile>
